# xmcd
#
# Track frame offsets:
#	150
#	35007
#	50978
#	70540
#	102895
#	137705
#
# Disc length: 2189 seconds
#
# Revision: 1
# Processed by: cddbd v1.5.2PL0 Copyright (c) Steve Scherf et al.
# Submitted via: audiograbber 1.83.01
#
DISCID=53088b06
DTITLE=Grateful Dead - 73-09-17 Onondaga County War Memorial, Syracuse NY
DYEAR=1900
DGENRE=
TTITLE0=Loose Lucy
TTITLE1=You Ain't Woman Enough
TTITLE2=El Paso
TTITLE3=Casey Jones
TTITLE4=Mississippi Half-Step
TTITLE5=Let Me Sing Your Blues Away
EXTD=
EXTT0=
EXTT1=
EXTT2=
EXTT3=
EXTT4=
EXTT5=
PLAYORDER=
